<?xml version="1.0" encoding="UTF-8"?>
<svg version="1.1" xmlns="http://www.w3.org/2000/svg" width="48" height="49">
<path d="M0 0 C0.639375 0.598125 1.27875 1.19625 1.9375 1.8125 C1.6075 3.4625 1.2775 5.1125 0.9375 6.8125 C-1.0425 7.1425 -3.0225 7.4725 -5.0625 7.8125 C-4.546875 8.451875 -4.03125 9.09125 -3.5 9.75 C-1.53379142 13.93887915 -2.06994016 17.36436148 -3.0625 21.8125 C-3.5575 22.3075 -3.5575 22.3075 -4.0625 22.8125 C2.8675 23.3075 2.8675 23.3075 9.9375 23.8125 C10.18365385 39.32019231 10.18365385 39.32019231 7.9375 43.8125 C-6.5825 43.8125 -21.1025 43.8125 -36.0625 43.8125 C-38.96264024 38.01221953 -38.16279082 30.13082164 -38.0625 23.8125 C-33.4425 23.4825 -28.8225 23.1525 -24.0625 22.8125 C-24.7225 21.4925 -25.3825 20.1725 -26.0625 18.8125 C-26.1875 15.5625 -26.1875 15.5625 -26.0625 12.8125 C-27.114375 12.895 -28.16625 12.9775 -29.25 13.0625 C-33.0625 12.8125 -33.0625 12.8125 -36 11.3125 C-38.49986663 8.28235863 -38.82068093 6.56009369 -38.52734375 2.7109375 C-38.0625 0.8125 -38.0625 0.8125 -36.25 -1.5625 C-25.22048014 -7.18539248 -10.20505967 -7.28932834 0 0 Z " fill="#9E72B7" transform="translate(38.0625,5.1875)"/>
<path d="M0 0 C0.639375 0.598125 1.27875 1.19625 1.9375 1.8125 C1.6075 3.4625 1.2775 5.1125 0.9375 6.8125 C-1.0425 7.1425 -3.0225 7.4725 -5.0625 7.8125 C-4.546875 8.451875 -4.03125 9.09125 -3.5 9.75 C-1.55154843 13.90104899 -1.91344412 17.41498538 -3.0625 21.8125 C-6.20529621 24.95529621 -9.72184666 24.22003628 -14 24.25 C-15.2365332 24.29930664 -15.2365332 24.29930664 -16.49804688 24.34960938 C-18.79324082 24.37011883 -20.82345348 24.32089087 -23.0625 23.8125 C-25.65005492 20.89043227 -26.02963322 19.39314639 -26.25 15.5 C-26.1571875 14.1696875 -26.1571875 14.1696875 -26.0625 12.8125 C-27.114375 12.895 -28.16625 12.9775 -29.25 13.0625 C-33.0625 12.8125 -33.0625 12.8125 -36 11.3125 C-38.49986663 8.28235863 -38.82068093 6.56009369 -38.52734375 2.7109375 C-38.0625 0.8125 -38.0625 0.8125 -36.25 -1.5625 C-25.22048014 -7.18539248 -10.20505967 -7.28932834 0 0 Z " fill="#FECBBD" transform="translate(38.0625,5.1875)"/>
<path d="M0 0 C5.07081218 -0.36076925 8.87602359 -0.5619882 13.5 1.75 C15.90838054 3.91754249 16.86249838 5.04893447 18 8 C18.046875 10.2890625 18.046875 10.2890625 17.75 12.625 C17.66234375 13.40101562 17.5746875 14.17703125 17.484375 14.9765625 C17 17 17 17 15 19 C12.04373167 19.49448444 9.05550861 19.41653729 6.0625 19.4375 C4.8259668 19.48680664 4.8259668 19.48680664 3.56445312 19.53710938 C1.26925918 19.55761883 -0.76095348 19.50839087 -3 19 C-5.58755492 16.07793227 -5.96713322 14.58064639 -6.1875 10.6875 C-6.125625 9.800625 -6.06375 8.91375 -6 8 C-2.33572029 6.64285937 -0.49363912 7.47713166 3 9 C3.99 9 4.98 9 6 9 C5.88658466 6.59122743 5.88658466 6.59122743 5 4 C2.52066803 2.22851628 2.52066803 2.22851628 0 1 C0 0.67 0 0.34 0 0 Z " fill="#F18224" transform="translate(18,10)"/>
<path d="M0 0 C10.89 0 21.78 0 33 0 C32.01 1.65 31.02 3.3 30 5 C27.13009632 5.66899782 24.90414246 5.93792041 22 6 C20.65808594 6.0311792 20.65808594 6.0311792 19.2890625 6.06298828 C16.35822498 6.09823379 13.43091138 6.08750121 10.5 6.0625 C9.48679687 6.05798828 8.47359375 6.05347656 7.4296875 6.04882812 C4.95306173 6.03714593 2.47656343 6.02076582 0 6 C0 4.02 0 2.04 0 0 Z " fill="#CEA3DF" transform="translate(0,29)"/>
<path d="M0 0 C0.495 1.485 0.495 1.485 1 3 C0.67 3.66 0.34 4.32 0 5 C-14.52 5 -29.04 5 -44 5 C-44 4.34 -44 3.68 -44 3 C-35.01048151 1.84375834 -25.9820373 1.43093753 -16.9375 0.9375 C-15.29230511 0.84592921 -13.64712268 0.75413426 -12.00195312 0.66210938 C-8.00144117 0.4388196 -4.00077242 0.21857103 0 0 Z " fill="#754A8F" transform="translate(46,44)"/>
<path d="M0 0 C0.33 0 0.66 0 1 0 C1 2.31 1 4.62 1 7 C-12.53 7 -26.06 7 -40 7 C-39.67 6.34 -39.34 5.68 -39 5 C-36.15185547 4.62109375 -36.15185547 4.62109375 -32.3671875 4.4375 C-31.36209641 4.38227173 -31.36209641 4.38227173 -30.33670044 4.32592773 C-28.18316674 4.20813658 -26.02929734 4.10281437 -23.875 4 C-21.74217252 3.89668966 -19.6097311 3.7903602 -17.47756958 3.67407227 C-15.52696384 3.56779979 -13.57574045 3.47304997 -11.62451172 3.37890625 C-5.35665465 2.84187004 -5.35665465 2.84187004 0 0 Z " fill="#895EA2" transform="translate(47,31)"/>
<path d="M0 0 C5.07081218 -0.36076925 8.87602359 -0.5619882 13.5 1.75 C16.98337468 4.88503721 17.90700658 6.45010959 18.1875 11.125 C18 14 18 14 17 16 C15.68 16 14.36 16 13 16 C12.87625 15.21625 12.7525 14.4325 12.625 13.625 C12.20882007 10.85942178 12.20882007 10.85942178 10 9 C10 7.68 10 6.36 10 5 C8.9171875 4.8453125 8.9171875 4.8453125 7.8125 4.6875 C4.74061475 3.93659472 2.59814146 2.78158272 0 1 C0 0.67 0 0.34 0 0 Z " fill="#FEC44B" transform="translate(18,10)"/>
<path d="M0 0 C5.28 0 10.56 0 16 0 C14 4 14 4 13 5 C10.81360547 5.07258946 8.62499611 5.08373783 6.4375 5.0625 C4.64119141 5.04896484 4.64119141 5.04896484 2.80859375 5.03515625 C1.88175781 5.02355469 0.95492187 5.01195312 0 5 C0 3.35 0 1.7 0 0 Z " fill="#D8B0ED" transform="translate(0,29)"/>
<path d="M0 0 C1.98 0 3.96 0 6 0 C6.33 1.32 6.66 2.64 7 4 C6.01 3.67 5.02 3.34 4 3 C4 3.99 4 4.98 4 6 C4.99 6.33 5.98 6.66 7 7 C7 7.33 7 7.66 7 8 C1.62694301 8.44041451 1.62694301 8.44041451 -1 8 C-3 5.5 -3 5.5 -4 3 C-2.68 2.67 -1.36 2.34 0 2 C0 1.34 0 0.68 0 0 Z " fill="#F49C2F" transform="translate(16,21)"/>
<path d="M0 0 C1.9375 0.6875 1.9375 0.6875 4 2 C4.75 4.625 4.75 4.625 5 7 C1.29511898 8.37217815 -0.4425204 7.43993222 -4 6 C-7.20870233 5.83242243 -7.20870233 5.83242243 -10 6 C-7.6870518 3.6870518 -6.52095125 3.50419025 -3.375 2.875 C-2.55773437 2.70742187 -1.74046875 2.53984375 -0.8984375 2.3671875 C-0.27195312 2.24601563 0.35453125 2.12484375 1 2 C0.67 1.34 0.34 0.68 0 0 Z " fill="#F7A48B" transform="translate(20,12)"/>
<path d="M0 0 C3.3 0 6.6 0 10 0 C8.88671875 2.44921875 8.88671875 2.44921875 7 5 C4.08203125 5.70703125 4.08203125 5.70703125 0.8125 5.8125 C-0.27417969 5.86019531 -1.36085938 5.90789063 -2.48046875 5.95703125 C-3.31191406 5.97121094 -4.14335937 5.98539063 -5 6 C-4.175 5.195625 -3.35 4.39125 -2.5 3.5625 C0.11638731 1.47736982 0.11638731 1.47736982 0 0 Z " fill="#BA8BCD" transform="translate(23,29)"/>
<path d="M0 0 C-0.5625 1.875 -0.5625 1.875 -2 4 C-6.10870902 5.59783129 -8.79911692 6.28617345 -13 5 C-8.68660704 1.42677506 -5.86197356 -0.71487482 0 0 Z " fill="#9764B4" transform="translate(48,29)"/>
<path d="M0 0 C0.99 0.66 1.98 1.32 3 2 C2.67 3.32 2.34 4.64 2 6 C3.32 6.33 4.64 6.66 6 7 C4 9 4 9 2.0546875 9.1953125 C0.03645833 9.13020833 -1.98177083 9.06510417 -4 9 C-3.525625 8.443125 -3.05125 7.88625 -2.5625 7.3125 C-0.87604004 4.81653926 -0.41046893 2.9553763 0 0 Z " fill="#F78F2A" transform="translate(29,20)"/>
<path d="M0 0 C2.89696854 0.36982577 5.37621929 0.68810965 8 2 C8 2.66 8 3.32 8 4 C6.35 4 4.7 4 3 4 C3 4.66 3 5.32 3 6 C1.68 6 0.36 6 -1 6 C-1.042721 4.33388095 -1.04063832 2.66617115 -1 1 C-0.67 0.67 -0.34 0.34 0 0 Z " fill="#D46C2D" transform="translate(13,17)"/>
<path d="M0 0 C3.7952131 1.49097658 5.61042731 3.75700849 8 7 C5.36 7 2.72 7 0 7 C0 4.69 0 2.38 0 0 Z " fill="#D3AAE9" transform="translate(1,38)"/>
<path d="M0 0 C0.66 0.33 1.32 0.66 2 1 C1.43628586 4.26954202 0.50037734 5.82575883 -2 8 C-4.475 7.01 -4.475 7.01 -7 6 C-7 5.01 -7 4.02 -7 3 C-4.03 3.495 -4.03 3.495 -1 4 C-0.67 2.68 -0.34 1.36 0 0 Z " fill="#F67711" transform="translate(27,21)"/>
<path d="M0 0 C0 0.99 0 1.98 0 3 C-1.45792884 3.05399736 -2.91642712 3.09279177 -4.375 3.125 C-5.18710937 3.14820313 -5.99921875 3.17140625 -6.8359375 3.1953125 C-9 3 -9 3 -11 1 C-7.32589215 -0.17571451 -3.83070817 -0.07366746 0 0 Z " fill="#754691" transform="translate(48,35)"/>
<path d="M0 0 C0.33 1.32 0.66 2.64 1 4 C-3.62 4.33 -8.24 4.66 -13 5 C-13 4.67 -13 4.34 -13 4 C-11.84371094 3.81824219 -11.84371094 3.81824219 -10.6640625 3.6328125 C-9.66117188 3.46523438 -8.65828125 3.29765625 -7.625 3.125 C-6.12839844 2.88136719 -6.12839844 2.88136719 -4.6015625 2.6328125 C-1.8574885 2.2041198 -1.8574885 2.2041198 0 0 Z " fill="#8754A4" transform="translate(47,31)"/>
<path d="M0 0 C0.58265625 0.21527344 1.1653125 0.43054688 1.765625 0.65234375 C0.69455383 1.52183692 -0.39183444 2.3724858 -1.484375 3.21484375 C-2.08765625 3.69050781 -2.6909375 4.16617188 -3.3125 4.65625 C-5.234375 5.65234375 -5.234375 5.65234375 -7.46875 5.3046875 C-8.05140625 5.08941406 -8.6340625 4.87414063 -9.234375 4.65234375 C-8.16330383 3.78285058 -7.07691556 2.9322017 -5.984375 2.08984375 C-5.38109375 1.61417969 -4.7778125 1.13851563 -4.15625 0.6484375 C-2.234375 -0.34765625 -2.234375 -0.34765625 0 0 Z " fill="#A271BD" transform="translate(40.234375,29.34765625)"/>
<path d="M0 0 C0.99 0.33 1.98 0.66 3 1 C0.93243723 3.7972908 -0.14440371 4.02692273 -3.6875 4.6875 C-4.780625 4.790625 -5.87375 4.89375 -7 5 C-6.01 4.34 -5.02 3.68 -4 3 C-3.01 2.1646875 -3.01 2.1646875 -2 1.3125 C-1.34 0.879375 -0.68 0.44625 0 0 Z " fill="#C297DA" transform="translate(21,30)"/>
<path d="M0 0 C1.485 0.99 1.485 0.99 3 2 C3.1875 4.625 3.1875 4.625 3 7 C2.01 7 1.02 7 0 7 C-0.38133299 5.0085944 -0.71325582 3.00720923 -1 1 C-0.67 0.67 -0.34 0.34 0 0 Z " fill="#FBA436" transform="translate(29,20)"/>
</svg>
